<svg xmlns="http://www.w3.org/2000/svg" viewBox="0 0 420 195" width="420" height="195" role="img" aria-label="Most used languages">
<style>
    text { font-family: ui-monospace,'SFMono-Regular','SF Mono',Menlo,Consolas,'Liberation Mono',monospace; }
    .fg  { fill: #e6edf3; font-size: 13px; }
    .mut { fill: #8b949e; font-size: 13px; }
    .acc { fill: #4493f8; font-size: 13px; }
    .b   { font-weight: 600; }
    </style>
<rect x="0.5" y="0.5" width="419" height="194" rx="6" fill="#0d1117" stroke="#30363d"/>
<text x="20" y="30" xml:space="preserve"><tspan class="acc b">hafiz@github</tspan><tspan class="mut">:~$</tspan><tspan class="fg"> tokei</tspan></text>
<clipPath id="bar"><rect x="20" y="46" width="380" height="10" rx="5"/></clipPath>
<rect clip-path="url(#bar)" x="20.0" y="46" width="145.4" height="10" fill="#4493f8"/>
<rect clip-path="url(#bar)" x="164.4" y="46" width="61.9" height="10" fill="#39c5cf"/>
<rect clip-path="url(#bar)" x="225.3" y="46" width="52.0" height="10" fill="#3fb950"/>
<rect clip-path="url(#bar)" x="276.3" y="46" width="50.9" height="10" fill="#d29922"/>
<rect clip-path="url(#bar)" x="326.2" y="46" width="26.6" height="10" fill="#db6d28"/>
<rect clip-path="url(#bar)" x="351.8" y="46" width="24.0" height="10" fill="#f85149"/>
<rect clip-path="url(#bar)" x="374.8" y="46" width="17.7" height="10" fill="#ab7df8"/>
<rect clip-path="url(#bar)" x="391.6" y="46" width="9.4" height="10" fill="#8b949e"/>
<circle cx="24" cy="81.5" r="4.5" fill="#4493f8"/>
<text x="37" y="86"><tspan class="fg">typescript</tspan><tspan class="mut"> 38.0%</tspan></text>
<circle cx="224" cy="81.5" r="4.5" fill="#39c5cf"/>
<text x="237" y="86"><tspan class="fg">html</tspan><tspan class="mut"> 16.0%</tspan></text>
<circle cx="24" cy="108.5" r="4.5" fill="#3fb950"/>
<text x="37" y="113"><tspan class="fg">python</tspan><tspan class="mut"> 13.4%</tspan></text>
<circle cx="224" cy="108.5" r="4.5" fill="#d29922"/>
<text x="237" y="113"><tspan class="fg">javascript</tspan><tspan class="mut"> 13.1%</tspan></text>
<circle cx="24" cy="135.5" r="4.5" fill="#db6d28"/>
<text x="37" y="140"><tspan class="fg">jupyter notebook</tspan><tspan class="mut"> 6.7%</tspan></text>
<circle cx="224" cy="135.5" r="4.5" fill="#f85149"/>
<text x="237" y="140"><tspan class="fg">mdx</tspan><tspan class="mut"> 6.1%</tspan></text>
<circle cx="24" cy="162.5" r="4.5" fill="#ab7df8"/>
<text x="37" y="167"><tspan class="fg">css</tspan><tspan class="mut"> 4.4%</tspan></text>
<circle cx="224" cy="162.5" r="4.5" fill="#8b949e"/>
<text x="237" y="167"><tspan class="fg">astro</tspan><tspan class="mut"> 2.2%</tspan></text>
</svg>